<svg width="146" height="24" viewBox="0 0 146 24" fill="none" xmlns="http://www.w3.org/2000/svg">
<path d="M129.984 22.848V6.97597H133.952V9.05597H134.528C134.784 8.5013 135.264 7.97864 135.968 7.48797C136.672 6.97597 137.739 6.71997 139.168 6.71997C140.406 6.71997 141.483 7.00797 142.4 7.58397C143.339 8.13864 144.064 8.9173 144.576 9.91997C145.088 10.9013 145.344 12.0533 145.344 13.376V22.848H141.312V13.696C141.312 12.5013 141.014 11.6053 140.416 11.008C139.84 10.4106 139.008 10.112 137.92 10.112C136.683 10.112 135.723 10.528 135.04 11.36C134.358 12.1706 134.016 13.312 134.016 14.784V22.848H129.984Z" fill="#70E000"/>
<path d="M120.348 23.296C118.769 23.296 117.372 22.9653 116.156 22.304C114.961 21.6213 114.022 20.672 113.34 19.456C112.678 18.2187 112.348 16.768 112.348 15.104V14.72C112.348 13.056 112.678 11.616 113.34 10.4C114.001 9.16268 114.929 8.21335 116.124 7.55202C117.318 6.86935 118.705 6.52802 120.284 6.52802C121.841 6.52802 123.196 6.88002 124.348 7.58402C125.5 8.26668 126.396 9.22668 127.036 10.464C127.676 11.68 127.996 13.0987 127.996 14.72V16.096H116.444C116.486 17.184 116.892 18.0693 117.66 18.752C118.428 19.4347 119.366 19.776 120.476 19.776C121.606 19.776 122.438 19.5307 122.972 19.04C123.505 18.5493 123.91 18.0053 124.188 17.408L127.484 19.136C127.185 19.6907 126.748 20.2987 126.172 20.96C125.617 21.6 124.87 22.1547 123.932 22.624C122.993 23.072 121.798 23.296 120.348 23.296ZM116.476 13.088H123.9C123.814 12.1707 123.441 11.4347 122.78 10.88C122.14 10.3253 121.297 10.048 120.252 10.048C119.164 10.048 118.3 10.3253 117.66 10.88C117.02 11.4347 116.625 12.1707 116.476 13.088Z" fill="#70E000"/>
<path d="M103.479 23.296C101.9 23.296 100.503 22.9653 99.2868 22.304C98.0921 21.6213 97.1534 20.672 96.4708 19.456C95.8094 18.2187 95.4788 16.768 95.4788 15.104V14.72C95.4788 13.056 95.8094 11.616 96.4708 10.4C97.1321 9.16268 98.0601 8.21335 99.2548 7.55202C100.449 6.86935 101.836 6.52802 103.415 6.52802C104.972 6.52802 106.327 6.88002 107.479 7.58402C108.631 8.26668 109.527 9.22668 110.167 10.464C110.807 11.68 111.127 13.0987 111.127 14.72V16.096H99.5748C99.6174 17.184 100.023 18.0693 100.791 18.752C101.559 19.4347 102.497 19.776 103.607 19.776C104.737 19.776 105.569 19.5307 106.103 19.04C106.636 18.5493 107.041 18.0053 107.319 17.408L110.615 19.136C110.316 19.6907 109.879 20.2987 109.303 20.96C108.748 21.6 108.001 22.1547 107.063 22.624C106.124 23.072 104.929 23.296 103.479 23.296ZM99.6068 13.088H107.031C106.945 12.1707 106.572 11.4347 105.911 10.88C105.271 10.3253 104.428 10.048 103.383 10.048C102.295 10.048 101.431 10.3253 100.791 10.88C100.151 11.4347 99.7561 12.1707 99.6068 13.088Z" fill="#70E000"/>
<path d="M85.7217 22.848V6.97599H89.6897V8.76799H90.2657C90.5004 8.12799 90.8844 7.65865 91.4177 7.35999C91.9724 7.06132 92.6124 6.91199 93.3377 6.91199H95.2577V10.496H93.2737C92.2497 10.496 91.4071 10.7733 90.7457 11.328C90.0844 11.8613 89.7537 12.6933 89.7537 13.824V22.848H85.7217Z" fill="#70E000"/>
<path d="M73.7503 23.296C72.2143 23.296 70.8169 22.9547 69.5583 22.272C68.3209 21.568 67.3289 20.5547 66.5823 19.232C65.8569 17.888 65.4943 16.256 65.4943 14.336V8.96C65.4943 6.08 66.3049 3.872 67.9263 2.336C69.5476 0.778667 71.7449 0 74.5183 0C77.2703 0 79.3929 0.736 80.8863 2.208C82.4009 3.65867 83.1583 5.632 83.1583 8.128V8.256H78.9983V8C78.9983 7.21067 78.8276 6.496 78.4863 5.856C78.1663 5.216 77.6756 4.71467 77.0143 4.352C76.3529 3.968 75.5209 3.776 74.5183 3.776C73.0249 3.776 71.8516 4.23467 70.9983 5.152C70.1449 6.06933 69.7183 7.31733 69.7183 8.896V14.4C69.7183 15.9573 70.1449 17.216 70.9983 18.176C71.8516 19.1147 73.0463 19.584 74.5823 19.584C76.1183 19.584 77.2383 19.1787 77.9423 18.368C78.6463 17.5573 78.9983 16.5333 78.9983 15.296V14.976H73.6863V11.392H83.1583V22.848H79.2543V20.704H78.6783C78.5289 21.0667 78.2836 21.4507 77.9423 21.856C77.6223 22.2613 77.1316 22.6027 76.4703 22.88C75.8089 23.1573 74.9023 23.296 73.7503 23.296Z" fill="#70E000"/>
<path d="M59.2205 22.848C58.1751 22.848 57.3218 22.528 56.6605 21.888C56.0205 21.2266 55.7005 20.352 55.7005 19.264V10.304H51.7325V6.97597H55.7005V2.04797H59.7325V6.97597H64.0845V10.304H59.7325V18.56C59.7325 19.2 60.0311 19.52 60.6285 19.52H63.7005V22.848H59.2205Z" fill="#004D24"/>
<path d="M34.395 22.848L40.155 14.848L34.459 6.97601H39.131L42.747 12.256H43.323L46.939 6.97601H51.611L45.915 14.848L51.675 22.848H46.939L43.323 17.504H42.747L39.131 22.848H34.395Z" fill="#004D24"/>
<path d="M27.1975 23.296C25.6188 23.296 24.2215 22.9653 23.0055 22.304C21.8108 21.6213 20.8722 20.672 20.1895 19.456C19.5282 18.2187 19.1975 16.768 19.1975 15.104V14.72C19.1975 13.056 19.5282 11.616 20.1895 10.4C20.8508 9.16268 21.7788 8.21335 22.9735 7.55202C24.1682 6.86935 25.5548 6.52802 27.1335 6.52802C28.6908 6.52802 30.0455 6.88002 31.1975 7.58402C32.3495 8.26668 33.2455 9.22668 33.8855 10.464C34.5255 11.68 34.8455 13.0987 34.8455 14.72V16.096H23.2935C23.3362 17.184 23.7415 18.0693 24.5095 18.752C25.2775 19.4347 26.2162 19.776 27.3255 19.776C28.4562 19.776 29.2882 19.5307 29.8215 19.04C30.3548 18.5493 30.7602 18.0053 31.0375 17.408L34.3335 19.136C34.0348 19.6907 33.5975 20.2987 33.0215 20.96C32.4668 21.6 31.7202 22.1547 30.7815 22.624C29.8428 23.072 28.6482 23.296 27.1975 23.296ZM23.3255 13.088H30.7495C30.6642 12.1707 30.2908 11.4347 29.6295 10.88C28.9895 10.3253 28.1468 10.048 27.1015 10.048C26.0135 10.048 25.1495 10.3253 24.5095 10.88C23.8695 11.4347 23.4748 12.1707 23.3255 13.088Z" fill="#004D24"/>
<path d="M0 22.848V0.447998H8.032L12.48 19.968H13.056V0.447998H17.216V22.848H9.184L4.736 3.328H4.16V22.848H0Z" fill="#004D24"/>
</svg>
